<svg id="_x33_0" enable-background="new 0 0 64 64" height="300" viewBox="0 0 64 64" width="300" xmlns="http://www.w3.org/2000/svg" version="1.1" xmlns:xlink="http://www.w3.org/1999/xlink" xmlns:svgjs="http://svgjs.dev/svgjs"><g width="100%" height="100%" transform="matrix(1,0,0,1,0,0)"><g><g><path d="m32 63c-.901 0-1.759-.342-2.414-.961l-13.919-13.187c-2.966-2.81-4.667-6.765-4.667-10.852 0-2.805.786-5.544 2.272-7.923l.185-.294c1.871-2.994 5.098-4.783 8.63-4.783 3.411 0 6.577 1.694 8.47 4.533l.978 1.467h.93l.978-1.467c1.892-2.839 5.058-4.533 8.47-4.533 3.533 0 6.759 1.789 8.632 4.784l.183.292c1.486 2.38 2.272 5.119 2.272 7.924 0 4.087-1.701 8.042-4.668 10.852l-13.918 13.186c-.655.62-1.513.962-2.414.962z" fill="#fb2c36" fill-opacity="1" data-original-color="#f0bc5eff" stroke="none" stroke-opacity="1"/></g><g><path d="m41.58 31h-8.58v-13h1c7.119 0 9-5.887 9-9v-1h-1c-4.572 0-7.367 1.573-9 3.546v-1.546c0-.09-.114-9-10-9h-1v1c0 3.459 1.672 10 8 10h1v5 .947c-1.175-1.084-3.039-1.947-6-1.947h-1v1c0 2.421 1.347 7 6.444 7h.556v7h-8.58l-4.64 8.119 14.22 16.408 14.22-16.408zm-.677-20.964c-.307 1.955-1.586 5.964-6.903 5.964h-.924c.421-2.771 2.647-5.613 7.827-5.964zm-10.903-.036c-4.664 0-5.703-4.78-5.934-6.956 6.808.578 6.932 6.686 6.934 6.956zm.444 12c-3.178 0-4.085-2.465-4.343-3.949 4.181.4 4.795 3.082 4.884 3.949zm5.168 18-3.612 10.837-3.612-10.837zm-6.669-2 3.057-4.279 3.057 4.279zm5-5h5.334l-2.37 4.148zm-6.849 4.148-2.371-4.148h5.334zm-1.817.852h-4.554l2.277-3.985zm1.002 2 3.181 9.542-8.27-9.542zm11.442 0h5.089l-8.27 9.542zm1.002-2 2.277-3.985 2.277 3.985z" fill="#000000" fill-opacity="1" data-original-color="#000000ff" stroke="none" stroke-opacity="1"/><path d="m17.168 20-3.479-1.157c-1.188-.396-2.134-1.343-2.53-2.531l-1.159-3.472-1.158 3.472c-.396 1.188-1.342 2.134-2.529 2.53l-3.482 1.158 3.481 1.157c1.188.396 2.134 1.343 2.53 2.531l1.158 3.472 1.158-3.472c.396-1.188 1.342-2.135 2.529-2.53zm-7.168 1.57c-.421-.615-.955-1.148-1.57-1.57.615-.422 1.149-.955 1.57-1.57.421.615.955 1.148 1.57 1.57-.615.422-1.149.955-1.57 1.57z" fill="#000000" fill-opacity="1" data-original-color="#000000ff" stroke="none" stroke-opacity="1"/><path d="m50.842 11.688 1.158 3.472 1.158-3.472c.396-1.188 1.342-2.135 2.529-2.53l3.481-1.158-3.479-1.157c-1.189-.397-2.135-1.343-2.531-2.531l-1.158-3.472-1.158 3.472c-.396 1.188-1.342 2.134-2.529 2.53l-3.482 1.158 3.481 1.157c1.188.397 2.134 1.343 2.53 2.531zm1.158-5.258c.421.615.955 1.148 1.57 1.57-.615.422-1.149.955-1.57 1.57-.421-.615-.955-1.148-1.57-1.57.615-.422 1.149-.955 1.57-1.57z" fill="#000000" fill-opacity="1" data-original-color="#000000ff" stroke="none" stroke-opacity="1"/><path d="m63.168 48-3.479-1.157c-1.188-.396-2.134-1.343-2.53-2.531l-1.159-3.473-.948 2.845c-.527 1.581-1.786 2.84-3.368 3.368l-2.849.949 3.477 1.156c1.188.396 2.134 1.343 2.53 2.531l1.158 3.472 1.158-3.472c.396-1.188 1.342-2.135 2.529-2.53zm-7.168 1.57c-.449-.655-1.025-1.218-1.691-1.651.617-.45 1.161-.994 1.611-1.61.433.666.996 1.242 1.651 1.691-.616.422-1.15.955-1.571 1.57z" fill="#000000" fill-opacity="1" data-original-color="#000000ff" stroke="none" stroke-opacity="1"/><path d="m1 14h2v2h-2z" fill="#000000" fill-opacity="1" data-original-color="#000000ff" stroke="none" stroke-opacity="1"/><path d="m3 29h2v2h-2z" fill="#000000" fill-opacity="1" data-original-color="#000000ff" stroke="none" stroke-opacity="1"/><path d="m7 35h2v2h-2z" fill="#000000" fill-opacity="1" data-original-color="#000000ff" stroke="none" stroke-opacity="1"/><path d="m7 50h2v2h-2z" fill="#000000" fill-opacity="1" data-original-color="#000000ff" stroke="none" stroke-opacity="1"/><path d="m5 59h2v2h-2z" fill="#000000" fill-opacity="1" data-original-color="#000000ff" stroke="none" stroke-opacity="1"/><path d="m1 55h2v2h-2z" fill="#000000" fill-opacity="1" data-original-color="#000000ff" stroke="none" stroke-opacity="1"/><path d="m15 14h2v2h-2z" fill="#000000" fill-opacity="1" data-original-color="#000000ff" stroke="none" stroke-opacity="1"/><path d="m43 1h2v2h-2z" fill="#000000" fill-opacity="1" data-original-color="#000000ff" stroke="none" stroke-opacity="1"/><path d="m57 18h2v2h-2z" fill="#000000" fill-opacity="1" data-original-color="#000000ff" stroke="none" stroke-opacity="1"/><path d="m46 16h2v2h-2z" fill="#000000" fill-opacity="1" data-original-color="#000000ff" stroke="none" stroke-opacity="1"/><path d="m56 32h2v2h-2z" fill="#000000" fill-opacity="1" data-original-color="#000000ff" stroke="none" stroke-opacity="1"/><path d="m53 22h2v2h-2z" fill="#000000" fill-opacity="1" data-original-color="#000000ff" stroke="none" stroke-opacity="1"/><path d="m59 53h2v2h-2z" fill="#000000" fill-opacity="1" data-original-color="#000000ff" stroke="none" stroke-opacity="1"/><path d="m61 39h2v2h-2z" fill="#000000" fill-opacity="1" data-original-color="#000000ff" stroke="none" stroke-opacity="1"/><path d="m61 12h2v2h-2z" fill="#000000" fill-opacity="1" data-original-color="#000000ff" stroke="none" stroke-opacity="1"/><path d="m5 8h2v2h-2z" fill="#000000" fill-opacity="1" data-original-color="#000000ff" stroke="none" stroke-opacity="1"/><path d="m21 12h2v2h-2z" fill="#000000" fill-opacity="1" data-original-color="#000000ff" stroke="none" stroke-opacity="1"/><path d="m9 1h2v2h-2z" fill="#000000" fill-opacity="1" data-original-color="#000000ff" stroke="none" stroke-opacity="1"/><path d="m17 5h2v2h-2z" fill="#000000" fill-opacity="1" data-original-color="#000000ff" stroke="none" stroke-opacity="1"/><path d="m13 5h2v2h-2z" fill="#000000" fill-opacity="1" data-original-color="#000000ff" stroke="none" stroke-opacity="1"/><path d="m15 7h2v2h-2z" fill="#000000" fill-opacity="1" data-original-color="#000000ff" stroke="none" stroke-opacity="1"/><path d="m15 3h2v2h-2z" fill="#000000" fill-opacity="1" data-original-color="#000000ff" stroke="none" stroke-opacity="1"/><path d="m5 41h2v2h-2z" fill="#000000" fill-opacity="1" data-original-color="#000000ff" stroke="none" stroke-opacity="1"/><path d="m1 41h2v2h-2z" fill="#000000" fill-opacity="1" data-original-color="#000000ff" stroke="none" stroke-opacity="1"/><path d="m3 43h2v2h-2z" fill="#000000" fill-opacity="1" data-original-color="#000000ff" stroke="none" stroke-opacity="1"/><path d="m3 39h2v2h-2z" fill="#000000" fill-opacity="1" data-original-color="#000000ff" stroke="none" stroke-opacity="1"/><path d="m46 53h2v2h-2z" fill="#000000" fill-opacity="1" data-original-color="#000000ff" stroke="none" stroke-opacity="1"/><path d="m54 57h2v2h-2z" fill="#000000" fill-opacity="1" data-original-color="#000000ff" stroke="none" stroke-opacity="1"/><path d="m17 57h2v2h-2z" fill="#000000" fill-opacity="1" data-original-color="#000000ff" stroke="none" stroke-opacity="1"/><path d="m13 57h2v2h-2z" fill="#000000" fill-opacity="1" data-original-color="#000000ff" stroke="none" stroke-opacity="1"/><path d="m15 59h2v2h-2z" fill="#000000" fill-opacity="1" data-original-color="#000000ff" stroke="none" stroke-opacity="1"/><path d="m15 55h2v2h-2z" fill="#000000" fill-opacity="1" data-original-color="#000000ff" stroke="none" stroke-opacity="1"/><path d="m61 26h2v2h-2z" fill="#000000" fill-opacity="1" data-original-color="#000000ff" stroke="none" stroke-opacity="1"/><path d="m57 26h2v2h-2z" fill="#000000" fill-opacity="1" data-original-color="#000000ff" stroke="none" stroke-opacity="1"/><path d="m59 28h2v2h-2z" fill="#000000" fill-opacity="1" data-original-color="#000000ff" stroke="none" stroke-opacity="1"/><path d="m59 24h2v2h-2z" fill="#000000" fill-opacity="1" data-original-color="#000000ff" stroke="none" stroke-opacity="1"/></g></g></g></svg>