<svg xmlns="http://www.w3.org/2000/svg" version="1.1" xmlns:xlink="http://www.w3.org/1999/xlink" width="512" height="512" x="0" y="0" viewBox="0 0 426.667 426.667" style="enable-background:new 0 0 512 512" xml:space="preserve"><g><path d="M309.332 170.668H10.668C4.778 170.668 0 175.441 0 181.332V416c0 5.89 4.777 10.668 10.668 10.668h74.664V288c0-5.89 4.777-10.668 10.668-10.668h128c5.89 0 10.668 4.777 10.668 10.668v138.668H320V181.332c0-5.89-4.777-10.664-10.668-10.664zm0 0" fill="#ffffff" opacity="1" data-original="#000000"></path><path d="M106.668 298.668h106.664v128H106.668zM416 234.668h-74.668v192H416c2.828 0 5.543-1.121 7.543-3.125 2.004-2 3.125-4.715 3.125-7.543V245.332c0-2.828-1.121-5.543-3.125-7.543-2-2-4.715-3.125-7.543-3.121zm-21.332 106.664h-21.336c-5.89 0-10.664-4.773-10.664-10.664S367.441 320 373.332 320h21.336c5.89 0 10.664 4.777 10.664 10.668s-4.773 10.664-10.664 10.664zm0-42.664h-21.336c-5.89 0-10.664-4.777-10.664-10.668s4.773-10.668 10.664-10.668h21.336c5.89 0 10.664 4.777 10.664 10.668s-4.773 10.668-10.664 10.668zM234.668 53.332c2.828.004 5.543-1.121 7.543-3.121s3.125-4.715 3.121-7.543c0-2.348 0-2.98 8.711-5.887 8.144-2.707 23.289-7.761 23.289-26.113 0-5.89-4.773-10.668-10.664-10.668S256 4.777 256 10.668c0 2.344 0 2.977-8.707 5.883C239.148 19.26 224 24.313 224 42.668c0 2.828 1.121 5.543 3.121 7.543a10.66 10.66 0 0 0 7.547 3.121zM277.332 74.668a10.658 10.658 0 0 0-16.582-8.875l-32 21.332A10.685 10.685 0 0 0 224 96v53.332h53.332zM144 53.332a10.65 10.65 0 0 0 7.543-3.121c2.004-2 3.125-4.715 3.125-7.543 0-2.348 0-2.98 8.707-5.887 8.145-2.707 23.293-7.761 23.293-26.113C186.668 4.778 181.891 0 176 0s-10.668 4.777-10.668 10.668c0 2.344 0 2.977-8.707 5.883-8.145 2.71-23.293 7.762-23.293 26.117 0 2.828 1.121 5.543 3.125 7.543 2 2 4.715 3.125 7.543 3.121zM186.668 74.668a10.661 10.661 0 0 0-16.586-8.875l-32 21.332a10.705 10.705 0 0 0-4.75 8.875v53.332h53.336zM53.332 53.332A10.66 10.66 0 0 0 64 42.668c0-2.348 0-2.98 8.707-5.887C80.852 34.074 96 29.02 96 10.668 96 4.778 91.223 0 85.332 0S74.668 4.777 74.668 10.668c0 2.344 0 2.977-8.711 5.883-8.144 2.71-23.289 7.762-23.289 26.117a10.65 10.65 0 0 0 3.121 7.543c2 2 4.715 3.125 7.543 3.121zM96 74.668a10.654 10.654 0 0 0-5.633-9.41 10.655 10.655 0 0 0-10.949.535l-32 21.332A10.685 10.685 0 0 0 42.668 96v53.332H96zm0 0" fill="#ffffff" opacity="1" data-original="#000000"></path></g></svg>