<svg xmlns="http://www.w3.org/2000/svg" version="1.1" xmlns:xlink="http://www.w3.org/1999/xlink" width="512" height="512" x="0" y="0" viewBox="0 0 32 32" style="enable-background:new 0 0 512 512" xml:space="preserve" class=""><g><g data-name="29-Premium-quality"><path d="M29.09 13.64a4.51 4.51 0 0 1-.53-1 4.46 4.46 0 0 1 0-1.19A4.29 4.29 0 0 0 28.12 9a4.28 4.28 0 0 0-1.93-1.57 4.45 4.45 0 0 1-1-.62 4.45 4.45 0 0 1-.62-1A4.35 4.35 0 0 0 23 3.87a4.37 4.37 0 0 0-2.44-.38 4.44 4.44 0 0 1-1.19-.05 4.51 4.51 0 0 1-1-.53A4.37 4.37 0 0 0 16 2a4.37 4.37 0 0 0-2.36.91 4.51 4.51 0 0 1-1 .53 4.46 4.46 0 0 1-1.19.05A4.37 4.37 0 0 0 9 3.87a4.35 4.35 0 0 0-1.57 1.94 4.45 4.45 0 0 1-.62 1 4.45 4.45 0 0 1-1 .62A4.28 4.28 0 0 0 3.88 9a4.29 4.29 0 0 0-.39 2.44 4.46 4.46 0 0 1-.05 1.19 4.51 4.51 0 0 1-.53 1A4.37 4.37 0 0 0 2 16a4.37 4.37 0 0 0 .91 2.36 4.51 4.51 0 0 1 .53 1 4.46 4.46 0 0 1 .05 1.19A4.29 4.29 0 0 0 3.88 23a4.28 4.28 0 0 0 1.93 1.57 4.45 4.45 0 0 1 1 .62 4.45 4.45 0 0 1 .62 1A4.35 4.35 0 0 0 9 28.13a4.37 4.37 0 0 0 2.44.38 4.44 4.44 0 0 1 1.19 0 4.51 4.51 0 0 1 1 .53A4.37 4.37 0 0 0 16 30a4.37 4.37 0 0 0 2.36-.91 4.51 4.51 0 0 1 1-.53 4.46 4.46 0 0 1 1.19 0 4.37 4.37 0 0 0 2.45-.43 4.35 4.35 0 0 0 1.57-1.94 4.45 4.45 0 0 1 .62-1 4.45 4.45 0 0 1 1-.62A4.28 4.28 0 0 0 28.12 23a4.29 4.29 0 0 0 .39-2.44 4.46 4.46 0 0 1 0-1.19 4.51 4.51 0 0 1 .53-1A4.37 4.37 0 0 0 30 16a4.37 4.37 0 0 0-.91-2.36ZM16 25a9 9 0 1 1 9-9 9 9 0 0 1-9 9Z" fill="#ffffff" opacity="1" data-original="#000000" class=""></path><path d="m20.88 13.45-2.75-.4-1.23-2.49a1 1 0 0 0-1.8 0l-1.23 2.49-2.75.4a1 1 0 0 0-.55 1.7l2 1.94-.47 2.74a1 1 0 0 0 .4 1 1 1 0 0 0 1 .08l2.5-1.32 2.46 1.3a1 1 0 0 0 .46.11 1 1 0 0 0 .59-.19 1 1 0 0 0 .4-1l-.47-2.74 2-1.94a1 1 0 0 0-.55-1.7Z" fill="#ffffff" opacity="1" data-original="#000000" class=""></path></g></g></svg>