<svg xmlns="http://www.w3.org/2000/svg" version="1.1" xmlns:xlink="http://www.w3.org/1999/xlink" width="512" height="512" x="0" y="0" viewBox="0 0 32 32" style="enable-background:new 0 0 512 512" xml:space="preserve"><g><path d="M26.25 9.91h-6.38c-.78 0-1.41-.63-1.41-1.41V2.13c.15.06.3.16.42.28l7.08 7.09c.12.12.22.26.29.41z" fill="#ffffff" opacity="1" data-original="#000000"></path><path d="M19.87 11.41a2.914 2.914 0 0 1-2.91-2.91V2H7.04c-.79 0-1.42.63-1.42 1.41v25.18c0 .78.63 1.41 1.42 1.41h9.628a6.904 6.904 0 0 1-2.628-5.417 6.925 6.925 0 0 1 6.917-6.917 6.903 6.903 0 0 1 5.424 2.638V11.41zM9.623 8.434h5.112a.9.9 0 0 1 0 1.8H9.623a.9.9 0 0 1 0-1.8zm2.422 17.296h-2.42a.9.9 0 0 1 0-1.8h2.42a.9.9 0 0 1 0 1.8zm1.47-5.16h-3.89a.9.9 0 0 1 0-1.8h3.89a.9.9 0 0 1 0 1.8zm8.858-5.17H9.623a.9.9 0 0 1 0-1.8h12.75a.9.9 0 0 1 0 1.8z" fill="#ffffff" opacity="1" data-original="#000000"></path><path d="M20.956 19.167a5.417 5.417 0 1 0 0 10.833 5.417 5.417 0 0 0 0-10.833zm2.406 5.195-2.644 2.13a.9.9 0 0 1-1.272-.145l-1.04-1.325a.901.901 0 0 1 1.416-1.112l.478.608 1.934-1.558a.9.9 0 1 1 1.128 1.402z" fill="#ffffff" opacity="1" data-original="#000000"></path></g></svg>